HIERARCHY
ROOT Hips
{
	OFFSET 0.00000 0.00000 0.00000
	CHANNELS 6 Xposition Yposition Zposition Zrotation Yrotation Xrotation 
	JOINT LHipJoint
	{
		OFFSET 0 0 0
		CHANNELS 3 Zrotation Yrotation Xrotation
		JOINT LeftUpLeg
		{
			OFFSET 1.36306 -1.79463 0.83929
			CHANNELS 3 Zrotation Yrotation Xrotation
			JOINT LeftLeg
			{
				OFFSET 2.44811 -6.72613 0.00000
				CHANNELS 3 Zrotation Yrotation Xrotation
				JOINT LeftFoot
				{
					OFFSET 2.56220 -7.03959 0.00000
					CHANNELS 3 Zrotation Yrotation Xrotation
					JOINT LeftToeBase
					{
						OFFSET 0.15764 -0.43311 2.32255
						CHANNELS 3 Zrotation Yrotation Xrotation
						End Site
						{
							OFFSET 0.00000 -0.00000 1.18966
						}
					}
				}
			}
		}
	}
	JOINT RHipJoint
	{
		OFFSET 0 0 0
		CHANNELS 3 Zrotation Yrotation Xrotation
		JOINT RightUpLeg
		{
			OFFSET -1.30552 -1.79463 0.83929
			CHANNELS 3 Zrotation Yrotation Xrotation
			JOINT RightLeg
			{
				OFFSET -2.54253 -6.98555 0.00000
				CHANNELS 3 Zrotation Yrotation Xrotation
				JOINT RightFoot
				{
					OFFSET -2.56826 -7.05623 0.00000
					CHANNELS 3 Zrotation Yrotation Xrotation
					JOINT RightToeBase
					{
						OFFSET -0.16473 -0.45259 2.36315
						CHANNELS 3 Zrotation Yrotation Xrotation
						End Site
						{
							OFFSET -0.00000 -0.00000 1.21082
						}
					}
				}
			}
		}
	}
	JOINT LowerBack
	{
		OFFSET 0 0 0
		CHANNELS 3 Zrotation Yrotation Xrotation
		JOINT Spine
		{
			OFFSET 0.02827 2.03559 -0.19338
			CHANNELS 3 Zrotation Yrotation Xrotation
			JOINT Spine1
			{
				OFFSET 0.05672 2.04885 -0.04275
				CHANNELS 3 Zrotation Yrotation Xrotation
				JOINT Neck
				{
					OFFSET 0 0 0
					CHANNELS 3 Zrotation Yrotation Xrotation
					JOINT Neck1
					{
						OFFSET -0.05417 1.74624 0.17202
						CHANNELS 3 Zrotation Yrotation Xrotation
						JOINT Head
						{
							OFFSET 0.10407 1.76136 -0.12397
							CHANNELS 3 Zrotation Yrotation Xrotation
							End Site
							{
								OFFSET 0.03720 1.77044 -0.06241
							}
						}
					}
				}
				JOINT LeftShoulder
				{
					OFFSET 0 0 0
					CHANNELS 3 Zrotation Yrotation Xrotation
					JOINT LeftArm
					{
						OFFSET 3.36241 1.20089 -0.31121
						CHANNELS 3 Zrotation Yrotation Xrotation
						JOINT LeftForeArm
						{
							OFFSET 4.98300 -0.00000 -0.00000
							CHANNELS 3 Zrotation Yrotation Xrotation
							JOINT LeftHand
							{
								OFFSET 3.48356 -0.00000 -0.00000
								CHANNELS 3 Zrotation Yrotation Xrotation
								JOINT LeftFingerBase
								{
									OFFSET 0 0 0
									CHANNELS 3 Zrotation Yrotation Xrotation
									JOINT LeftHandIndex1
									{
										OFFSET 0.71526 -0.00000 -0.00000
										CHANNELS 3 Zrotation Yrotation Xrotation
										End Site
										{
											OFFSET 0.57666 -0.00000 -0.00000
										}
									}
								}
								JOINT LThumb
								{
									OFFSET 0 0 0
									CHANNELS 3 Zrotation Yrotation Xrotation
									End Site
									{
										OFFSET 0.58547 -0.00000 0.58547
									}
								}
							}
						}
					}
				}
				JOINT RightShoulder
				{
					OFFSET 0 0 0
					CHANNELS 3 Zrotation Yrotation Xrotation
					JOINT RightArm
					{
						OFFSET -3.13660 1.37405 -0.40465
						CHANNELS 3 Zrotation Yrotation Xrotation
						JOINT RightForeArm
						{
							OFFSET -5.24190 -0.00000 -0.00000
							CHANNELS 3 Zrotation Yrotation Xrotation
							JOINT RightHand
							{
								OFFSET -3.44417 -0.00000 -0.00000
								CHANNELS 3 Zrotation Yrotation Xrotation
								JOINT RightFingerBase
								{
									OFFSET 0 0 0
									CHANNELS 3 Zrotation Yrotation Xrotation
									JOINT RightHandIndex1
									{
										OFFSET -0.62253 -0.00000 -0.00000
										CHANNELS 3 Zrotation Yrotation Xrotation
										End Site
										{
											OFFSET -0.50190 -0.00000 -0.00000
										}
									}
								}
								JOINT RThumb
								{
									OFFSET 0 0 0
									CHANNELS 3 Zrotation Yrotation Xrotation
									End Site
									{
										OFFSET -0.50956 -0.00000 0.50956
									}
								}
							}
						}
					}
				}
			}
		}
	}
}
MOTION
Frames: 7
Frame Time: .0083333
4.2286 17.4615 17.9286 0 0 0 0 0 0 -21 0 0 0 0 0 0 0 0 0 0 0 0 0 0 21 0 0 0 0 0 0 0 0 0 0 0 0 0 0 0 0 0 0 0 0 0 0 -16 0 0 21 0 0 11 0 0 0 -8 0 0 0 0 0 0 0 0 0 0 0 0 0 0 0 0 0 0 0 0 8 0 0 0 0 0 0 0 0 0 0 0 0 0 0 0 0 0
4.2286 17.4615 17.9286 -22.7400 -62.6469 26.7559 0.0000 0.0000 0.0000 -3.4267 -4.4498 -40.1487 2.8929 10.5197 30.6765 0.3477 10.8858 -19.8457 0.2010 -2.8867 -7.9635 0.0000 0.0000 0.0000 32.2216 -6.0865 -8.0851 -2.0213 -8.9103 25.5151 -1.1116 -13.4536 -28.8559 -0.1553 -2.5392 6.9984 13.6603 4.3400 14.1274 5.9146 7.7691 2.7381 -2.5557 3.5639 -3.9697 -0.2156 4.9319 -8.6618 -8.3538 8.1346 16.9590 -1.9508 3.1580 6.9628 -0.0000 -0.0000 0.0000 -90.4037 3.5068 22.6632 17.5143 -27.5308 -4.3224 -0.0000 0.0000 -1.2196 15.5019 -6.0443 -1.6729 -7.1250 0.0000 -0.0000 -8.2951 23.7194 4.3011 -0.0000 -0.0000 0.0000 81.9066 4.2519 13.9470 -11.5004 19.0511 -1.9361 0.0000 -0.0000 -7.5701 -9.1398 -9.4303 1.5100 7.1250 -0.0000 -0.0000 15.3826 -39.0740 2.3103
4.1717 17.4762 17.9788 -20.2882 -63.0346 24.8654 0.0000 0.0000 0.0000 -4.3766 -5.2969 -40.2307 2.8478 10.4445 30.4286 0.0560 13.6282 -20.0090 0.3850 -3.9846 -11.0332 0.0000 0.0000 0.0000 30.8753 -5.9617 -7.8550 -1.9547 -8.7710 25.0815 -1.0322 -13.8015 -28.6268 -0.1399 -2.4104 6.6414 12.2055 4.5013 13.9294 5.5315 7.7559 2.7089 -2.1811 3.5867 -4.0379 -0.2418 4.9886 -8.7071 -8.1764 8.1909 16.9981 -1.8832 3.1961 6.9767 -0.0000 0.0000 0.0000 -90.3565 3.7741 22.2526 17.4645 -27.4661 -4.2994 -0.0000 0.0000 -1.2338 15.8486 -5.8836 -1.6669 -7.1250 0.0000 -0.0000 -8.0463 23.8737 4.1407 -0.0000 0.0000 0.0000 81.8583 4.3952 14.6167 -11.4821 19.0235 -1.9302 0.0000 -0.0000 -8.2083 -10.5214 -3.9080 0.7252 7.1250 -0.0000 -0.0000 13.1375 -33.7295 3.7144
4.1014 17.4320 18.0124 -25.1152 -61.6662 28.6683 0.0000 0.0000 0.0000 -1.0176 -5.8220 -39.6468 2.8378 10.4277 30.3733 -0.0438 14.8842 -20.6622 0.3315 -3.7004 -10.2352 0.0000 0.0000 0.0000 33.7544 -5.9351 -6.8057 -1.9000 -8.6545 24.7205 -0.9922 -14.4658 -28.9852 -0.1514 -2.5076 6.9108 14.2926 4.3831 14.3617 6.2379 7.9517 2.7857 -2.5859 3.6354 -3.9813 -0.3550 4.9890 -8.8013 -7.9761 8.1854 17.0972 -1.7983 3.1971 7.0117 -0.0000 0.0000 0.0000 -90.3181 3.8946 21.9571 17.3159 -27.2724 -4.2311 -0.0000 0.0000 -1.4234 16.0758 -5.9573 -1.7132 -7.1250 0.0000 -0.0000 -7.8754 23.7907 4.0663 -0.0000 0.0000 0.0000 81.8683 4.4074 15.4907 -11.6645 19.2996 -1.9900 0.0000 -0.0000 -8.7483 -12.7545 -1.3870 0.3139 7.1250 -0.0000 -0.0000 11.0005 -31.2847 3.7496
4.0578 17.4460 18.0847 -22.2235 -62.1553 26.7911 0.0000 0.0000 0.0000 -2.0112 -7.5111 -39.7662 2.8019 10.3672 30.1741 -0.4906 18.1578 -20.9353 0.4270 -4.1938 -11.6226 0.0000 0.0000 0.0000 32.0155 -6.5384 -7.4090 -1.8610 -8.5703 24.4602 -0.9382 -14.2523 -28.3971 -0.1177 -2.2115 6.0905 12.7620 4.5887 13.8638 5.7718 7.9490 2.6401 -2.2421 3.6682 -4.0117 -0.2803 5.0668 -8.7050 -8.0817 8.2950 17.0813 -1.8367 3.2487 7.0019 -0.0000 -0.0000 0.0000 -90.4111 4.0010 21.5426 17.0944 -26.9821 -4.1301 -0.0000 0.0000 -1.6073 16.0879 -6.1186 -1.7607 -7.1250 0.0000 -0.0000 -7.8601 23.6242 4.0887 -0.0000 -0.0000 0.0000 81.8454 4.5678 15.9618 -11.6626 19.2968 -1.9894 0.0000 -0.0000 -7.7175 -14.5779 -1.0325 0.2685 7.1250 -0.0000 -0.0000 9.5233 -30.9638 3.3070
4.0121 17.4447 18.1540 -22.1051 -62.3019 27.0165 0.0000 0.0000 0.0000 -1.6613 -8.5825 -39.6360 2.8167 10.3923 30.2565 -0.8197 20.5953 -21.8425 0.3807 -3.9626 -10.9716 0.0000 0.0000 0.0000 31.7229 -6.9310 -7.4636 -1.8062 -8.4501 24.0898 -0.7496 -14.7559 -27.5362 -0.0431 -1.3398 3.6842 12.5138 4.7369 13.6866 5.6376 8.0881 2.5831 -2.2565 3.7445 -3.9740 -0.1936 5.1611 -8.6109 -8.1574 8.4163 17.0135 -1.8664 3.3117 6.9755 0.0000 0.0000 0.0000 -90.4943 4.1262 20.9980 16.9083 -26.7368 -4.0460 -0.0000 0.0000 -1.4259 16.1545 -5.9903 -1.7315 -7.1250 0.0000 -0.0000 -7.8160 23.7542 4.0417 0.0000 0.0000 0.0000 81.9868 4.8682 15.4605 -11.5701 19.1568 -1.9589 0.0000 -0.0000 -7.0212 -15.3973 -1.2655 0.3485 7.1250 -0.0000 -0.0000 8.9007 -31.2177 3.0310
3.9619 17.4453 18.2249 -22.3216 -62.4483 27.4666 0.0000 0.0000 0.0000 -1.3030 -8.9915 -39.5194 2.7739 10.3197 30.0182 -0.8408 21.5577 -23.5187 0.1409 -2.4190 -6.6651 0.0000 0.0000 0.0000 31.5675 -6.9816 -7.4700 -1.8055 -8.4486 24.0853 -0.7250 -14.7228 -27.3179 -0.0255 -1.0304 2.8324 12.4927 4.8587 13.5781 5.4371 8.2299 2.5356 -2.4640 3.8195 -3.9209 -0.2438 5.2252 -8.5155 -7.8894 8.4558 16.9499 -1.7715 3.3561 6.9248 0.0000 0.0000 0.0000 -90.3953 4.2147 20.3946 16.6826 -26.4374 -3.9450 -0.0000 0.0000 -1.1173 16.1269 -5.8533 -1.6890 -7.1250 0.0000 -0.0000 -7.8420 23.8963 4.0295 0.0000 0.0000 0.0000 82.3569 5.1661 14.6030 -11.5244 19.0876 -1.9439 0.0000 -0.0000 -6.5691 -16.0347 -2.2082 0.6345 7.1250 -0.0000 -0.0000 8.4919 -32.2002 2.6863
